<?xml version="1.0" encoding="utf-8"?>
<!-- Generator: Adobe Illustrator 16.0.0, SVG Export Plug-In . SVG Version: 6.00 Build 0)  -->
<!DOCTYPE svg PUBLIC "-//W3C//DTD SVG 1.1//EN" "http://www.w3.org/Graphics/SVG/1.1/DTD/svg11.dtd">
<svg version="1.1" id="Layer_1" xmlns="http://www.w3.org/2000/svg" xmlns:xlink="http://www.w3.org/1999/xlink" x="0px" y="0px"
	 width="785.96px" height="841.89px" viewBox="0 0 785.96 841.89" enable-background="new 0 0 785.96 841.89" xml:space="preserve">
<path fill-rule="evenodd" clip-rule="evenodd" fill="#50B848" d="M692.454,306.961c-211.579,0-413.129,0-624.72,0
	c-34.749-1.256-54.622-24.074-59.124-53.824c0-2.465,0-4.923,0-7.395c3.612-27.785,23.657-52.861,63.204-53.287
	c5.17-33.424,34.792-66.364,80.874-65.966c23.928,0.181,39.624,9.726,53.007,18.457c8.587-7.405,18.68-13.639,38.059-12.663
	c17.958-26.859,40.96-49.81,95.138-48.546c10.182-24.43,25.953-41.91,50.289-55.947c18.877-10.871,43.221-19.156,74.082-17.401
	c31.47,1.772,54.128,14.57,72.032,28.486c18.788,14.595,30.704,32.393,38.739,54.882c19.164,0.946,31.124,7.512,42.82,14.258
	c13.261-6.264,34.886-8.78,52.333-6.323c26.183,3.66,46.783,17.119,60.479,32.699c14.66,16.656,22.37,38.404,21.739,63.344
	c16.729,5.953,28.435,19.004,28.549,35.337c0.122,16.292-12.097,31.06-29.907,35.361c-2.389,0.59-5.862,0.696-7.473,2.117
	c-5.331,14.189-14.358,24.521-27.857,31.136C711.13,303.43,702.015,306.961,692.454,306.961z"/>
<g>
	<g>
		<path fill="#FFFFFF" d="M212.063,204.824c-1.899-5.008-2.59-8.116-2.59-11.743c0-5.525,5.008-10.015,12.433-10.015
			c6.043,0,9.843,4.144,11.742,9.842l14.332,47.486h0.346l14.505-46.45c2.071-6.734,5.18-10.878,12.605-10.878
			c7.425,0,10.533,4.144,12.605,10.878l14.504,46.45h0.345l14.333-47.486c1.899-5.698,5.698-9.842,11.742-9.842
			c7.425,0,12.432,4.489,12.432,12.087c0,2.763-1.036,5.353-2.417,9.324l-21.239,59.917c-2.59,7.426-6.907,12.606-15.022,12.606
			c-7.598,0-12.087-4.145-14.333-11.569l-12.778-40.061h-0.345l-12.778,40.061c-2.244,7.424-6.734,11.569-14.332,11.569
			c-8.116,0-12.432-5.18-15.022-12.606L212.063,204.824z"/>
		<path fill="#FFFFFF" d="M355.034,204.824c-1.899-5.008-2.59-8.116-2.59-11.743c0-5.525,5.007-10.015,12.432-10.015
			c6.044,0,9.843,4.144,11.742,9.842l14.332,47.486h0.345l14.504-46.45c2.073-6.734,5.18-10.878,12.605-10.878
			c7.425,0,10.533,4.144,12.604,10.878l14.505,46.45h0.346l14.332-47.486c1.9-5.698,5.698-9.842,11.742-9.842
			c7.425,0,12.433,4.489,12.433,12.087c0,2.763-1.037,5.353-2.418,9.324l-21.238,59.917c-2.591,7.426-6.907,12.606-15.023,12.606
			c-7.598,0-12.086-4.145-14.332-11.569l-12.777-40.061h-0.346l-12.778,40.061c-2.244,7.424-6.734,11.569-14.331,11.569
			c-8.116,0-12.433-5.18-15.023-12.606L355.034,204.824z"/>
		<path fill="#FFFFFF" d="M498.004,204.824c-1.898-5.008-2.59-8.116-2.59-11.743c0-5.525,5.008-10.015,12.432-10.015
			c6.044,0,9.843,4.144,11.742,9.842l14.332,47.486h0.345l14.506-46.45c2.071-6.734,5.18-10.878,12.604-10.878
			c7.426,0,10.533,4.144,12.605,10.878l14.504,46.45h0.347l14.331-47.486c1.899-5.698,5.698-9.842,11.742-9.842
			c7.425,0,12.433,4.489,12.433,12.087c0,2.763-1.036,5.353-2.417,9.324l-21.239,59.917c-2.59,7.426-6.907,12.606-15.022,12.606
			c-7.598,0-12.088-4.145-14.333-11.569l-12.777-40.061h-0.345l-12.778,40.061c-2.245,7.424-6.733,11.569-14.332,11.569
			c-8.115,0-12.432-5.18-15.023-12.606L498.004,204.824z"/>
	</g>
</g>
<g>
	<g>
		<path fill-rule="evenodd" clip-rule="evenodd" fill="#50B848" d="M190.482,601.044c52.572,5.747,225.042,21.144,410.462,0.353
			c5.077-0.756,22.52-4.929,0.963-25.184c-31.726-28.94-111.637-49.481-205.266-49.481c-92.889,0-172.269,20.221-204.498,48.796
			C171.757,594.263,184.05,599.604,190.482,601.044z"/>
		<path fill-rule="evenodd" clip-rule="evenodd" fill="#50B848" d="M600.084,610.268v-0.013
			c-70.638,7.877-139.02,10.578-199.5,10.578c-98.13,0-175.427-7.081-207.858-10.613c-2.715-0.218-16.12-0.563-15.734,14.065
			c0.017,0.508,0.014,0.986-0.004,1.438c0.951,44.028,5.303,143.474,25.171,192.298c0,0,2.821,17.346,194.482,17.346
			c190.766,0,194.484-17.346,194.484-17.346c20.089-49.378,24.315-150.503,25.202-193.747
			C616.743,608.018,600.084,610.268,600.084,610.268z"/>
	</g>
	<g>
		<g>
			<path fill="#F4F4F4" d="M292.891,744.067c-1.294,0-3.741-1.941-5.958-1.941c-1.249,0-2.264,0.555-2.264,1.846
				c0,3.14,11.546,2.633,11.546,10.209c0,4.432-3.738,7.805-9.467,7.805c-3.74,0-9.284-2.126-9.284-5.124
				c0-0.974,1.016-2.958,2.867-2.958c2.582,0,3.739,2.266,6.879,2.266c2.032,0,2.633-0.649,2.633-1.897
				c0-3.049-11.547-2.586-11.547-10.204c0-4.618,3.742-7.759,9.007-7.759c3.324,0,8.312,1.521,8.312,4.805
				C295.614,742.633,294.506,744.067,292.891,744.067z"/>
			<path fill="#F4F4F4" d="M321.435,749.19c0,6.927-4.758,12.795-11.916,12.795c-7.16,0-11.918-5.868-11.918-12.795
				c0-6.786,4.895-12.882,11.918-12.882C316.538,736.309,321.435,742.404,321.435,749.19z M304.253,749.19
				c0,3.188,1.709,6.697,5.265,6.697c3.554,0,5.265-3.509,5.265-6.697c0-3.136-1.568-6.786-5.265-6.786
				S304.253,746.055,304.253,749.19z"/>
			<path fill="#F4F4F4" d="M340.788,743.699c-1.666,0-3.188-1.295-5.267-1.295c-3.788,0-5.59,3.32-5.59,6.786
				c0,3.327,2.033,6.697,5.59,6.697c1.708,0,4.158-1.382,4.939-1.382c1.616,0,2.867,1.29,2.867,2.906
				c0,3.466-5.728,4.573-8.13,4.573c-7.16,0-11.918-5.868-11.918-12.795c0-6.786,4.897-12.882,11.918-12.882
				c2.632,0,8.13,1.014,8.13,4.202C343.328,741.896,342.355,743.699,340.788,743.699z"/>
			<path fill="#F4F4F4" d="M352.61,730.258c0,2.075-1.663,3.833-3.743,3.833c-1.983,0-3.74-1.802-3.74-3.833
				c0-1.896,1.756-3.651,3.74-3.651C350.852,726.606,352.61,728.317,352.61,730.258z M345.546,740.277
				c0-2.218,1.338-3.695,3.321-3.695c1.985,0,3.327,1.478,3.327,3.695v17.737c0,2.213-1.342,3.694-3.327,3.694
				c-1.983,0-3.321-1.481-3.321-3.694V740.277z"/>
			<path fill="#F4F4F4" d="M378.61,757.368c0,1.708,0,4.341-3.184,4.341c-1.985,0-2.682-1.019-3.19-2.82
				c-1.707,2.08-3.833,3.097-6.326,3.097c-6.283,0-10.991-5.314-10.991-12.795c0-7.246,4.893-12.882,10.991-12.882
				c2.445,0,4.847,0.967,6.326,3.046c0.187-1.616,1.573-2.772,3.19-2.772c3.184,0,3.184,2.635,3.184,4.344V757.368z
				 M366.831,755.888c3.467,0,5.128-3.509,5.128-6.697c0-3.136-1.613-6.786-5.128-6.786c-3.693,0-5.263,3.65-5.263,6.786
				C361.568,752.379,363.275,755.888,366.831,755.888z"/>
			<path fill="#F4F4F4" d="M382.303,729.564c0-2.217,1.34-3.694,3.326-3.694c1.986,0,3.327,1.478,3.327,3.694v28.45
				c0,2.213-1.34,3.694-3.327,3.694c-1.986,0-3.326-1.481-3.326-3.694V729.564z"/>
			<path fill="#F4F4F4" d="M392.557,729.564c0-2.217,1.34-3.694,3.328-3.694c1.985,0,3.324,1.478,3.324,3.694v28.45
				c0,2.213-1.339,3.694-3.324,3.694c-1.987,0-3.328-1.481-3.328-3.694V729.564z"/>
		</g>
		<g>
			<path fill="#F4F4F4" d="M426.774,759.49c0,7.945-5.217,12.012-12.793,12.012c-2.771,0-10.483-1.342-10.483-4.989
				c0-1.248,1.386-2.911,2.679-2.911c2.076,0,4.525,2.079,8.312,2.079c3.281,0,5.638-1.893,5.638-5.267v-1.568h-0.094
				c-1.431,2.075-3.649,3.14-6.698,3.14c-6.974,0-10.25-6.146-10.25-12.747c0-6.652,4.249-12.93,10.943-12.93
				c2.265,0,4.851,1.014,6.099,3.046c0.416-1.803,1.475-2.772,3.322-2.772c1.988,0,3.326,1.478,3.326,3.695V759.49z
				 M414.906,742.404c-3.466,0-5.174,3.556-5.174,6.695c0,3.556,1.708,6.788,5.174,6.788c3.507,0,5.22-3.37,5.22-6.559
				C420.126,746.099,418.554,742.404,414.906,742.404z"/>
			<path fill="#F4F4F4" d="M430.469,739.908c0-2.217,1.757-3.326,3.416-3.326c1.806,0,3.237,0.602,3.237,2.772h0.091
				c1.248-1.85,2.584-2.772,4.666-2.772c1.615,0,3.23,1.156,3.23,3.561c0,2.213-1.983,2.262-3.972,3.23
				c-1.984,0.876-4.016,1.846-4.016,4.432v10.21c0,2.213-1.339,3.694-3.326,3.694c-1.985,0-3.327-1.481-3.327-3.694V739.908z"/>
			<path fill="#F4F4F4" d="M450.469,751.361c0.507,3.327,3.142,4.808,6.282,4.808c3.415,0,5.771-2.681,7.526-2.681
				c1.433,0,2.724,1.43,2.724,2.863c0,2.819-5.864,5.634-10.851,5.634c-7.482,0-12.473-5.448-12.473-12.795
				c0-6.786,4.897-12.882,11.916-12.882c7.206,0,11.964,6.554,11.964,12.098c0,1.988-0.877,2.955-2.911,2.955H450.469z
				 M460.908,746.93c-0.37-2.958-2.174-5.081-5.314-5.081c-2.954,0-4.94,2.265-5.263,5.081H460.908z"/>
			<path fill="#F4F4F4" d="M475.268,751.361c0.512,3.327,3.144,4.808,6.285,4.808c3.417,0,5.77-2.681,7.526-2.681
				c1.431,0,2.724,1.43,2.724,2.863c0,2.819-5.867,5.634-10.852,5.634c-7.482,0-12.472-5.448-12.472-12.795
				c0-6.786,4.898-12.882,11.916-12.882c7.206,0,11.963,6.554,11.963,12.098c0,1.988-0.878,2.955-2.908,2.955H475.268z
				 M485.708,746.93c-0.369-2.958-2.169-5.081-5.313-5.081c-2.956,0-4.942,2.265-5.264,5.081H485.708z"/>
			<path fill="#F4F4F4" d="M494.714,740.277c0-2.218,1.339-3.695,3.324-3.695c1.711,0,2.818,0.923,3.049,2.451
				c1.296-1.801,3.279-2.725,6.42-2.725c5.221,0,9.097,3.279,9.097,8.958v12.748c0,2.213-1.342,3.694-3.322,3.694
				c-1.986,0-3.324-1.481-3.324-3.694V746.42c0-3.138-1.941-4.571-4.345-4.571c-2.769,0-4.248,1.984-4.248,4.571v11.595
				c0,2.213-1.338,3.694-3.326,3.694c-1.985,0-3.324-1.481-3.324-3.694V740.277z"/>
		</g>
	</g>
	<g>
		<path fill-rule="evenodd" clip-rule="evenodd" fill="#F4F4F4" d="M315.831,561.379c1.834,7.725-11.458,17.491-29.696,21.839
			c-18.246,4.328-34.514,1.601-36.351-6.122c-1.834-7.703,11.464-17.479,29.7-21.828
			C297.712,550.936,313.993,553.656,315.831,561.379z"/>
	</g>
	<g>
		<g>
			<path fill="#F4F4F4" d="M509.86,686.971c0,4.055-3.29,7.33-7.333,7.33h-59.466c-4.041,0-7.327-3.275-7.327-7.33l0.014-29.27
				c0-4.047,3.272-7.33,7.321-7.33h59.45c4.051,0,7.341,3.283,7.341,7.33V686.971z"/>
		</g>
		<g>
			<g>
				<path fill="#FFFFFF" d="M449.098,660.343c0,0.613-0.491,1.117-1.096,1.117h-4.531c-0.614,0-1.101-0.504-1.101-1.117v-4.526
					c0-0.606,0.486-1.094,1.101-1.094h4.531c0.604,0,1.096,0.487,1.096,1.094V660.343z"/>
			</g>
			<g>
				<path fill="#50B848" d="M448.733,660.097c0,0.547-0.438,0.985-0.987,0.985h-4.03c-0.541,0-0.984-0.438-0.984-0.985v-4.023
					c0-0.543,0.443-0.997,0.984-0.997h4.03c0.55,0,0.987,0.454,0.987,0.997V660.097z"/>
			</g>
		</g>
		<g>
			<g>
				<path fill="#FFFFFF" d="M449.098,688.859c0,0.602-0.491,1.093-1.096,1.093h-4.531c-0.614,0-1.101-0.491-1.101-1.093v-4.554
					c0-0.587,0.486-1.085,1.101-1.085h4.531c0.604,0,1.096,0.498,1.096,1.085V688.859z"/>
			</g>
			<g>
				<path fill="#50B848" d="M448.733,688.605c0,0.539-0.438,0.979-0.987,0.979h-4.03c-0.541,0-0.984-0.439-0.984-0.979v-4.051
					c0-0.531,0.443-0.955,0.984-0.955h4.03c0.55,0,0.987,0.424,0.987,0.955V688.605z"/>
			</g>
		</g>
		<g>
			<g>
				<path fill="#FFFFFF" d="M449.098,679.351c0,0.606-0.491,1.106-1.096,1.106h-4.531c-0.614,0-1.101-0.5-1.101-1.106v-4.529
					c0-0.614,0.486-1.098,1.101-1.098h4.531c0.604,0,1.096,0.483,1.096,1.098V679.351z"/>
			</g>
			<g>
				<path fill="#50B848" d="M448.733,679.105c0,0.547-0.438,0.99-0.987,0.99h-4.03c-0.541,0-0.984-0.443-0.984-0.99v-4.034
					c0-0.552,0.443-0.983,0.984-0.983h4.03c0.55,0,0.987,0.432,0.987,0.983V679.105z"/>
			</g>
		</g>
		<g>
			<g>
				<path fill="#FFFFFF" d="M449.098,669.858c0,0.614-0.491,1.102-1.096,1.102h-4.531c-0.614,0-1.101-0.487-1.101-1.102v-4.546
					c0-0.598,0.486-1.089,1.101-1.089h4.531c0.604,0,1.096,0.491,1.096,1.089V669.858z"/>
			</g>
			<g>
				<path fill="#50B848" d="M448.733,669.613c0,0.546-0.438,0.967-0.987,0.967h-4.03c-0.541,0-0.984-0.421-0.984-0.967v-4.056
					c0-0.535,0.443-0.978,0.984-0.978h4.03c0.55,0,0.987,0.442,0.987,0.978V669.613z"/>
			</g>
		</g>
		<g>
			<polygon fill="#50B848" points="453.036,689.952 503.73,689.952 503.491,654.723 453.036,654.723 			"/>
		</g>
	</g>
</g>
<g>
	<g>
		<path fill="#50B748" stroke="#FFFFFF" stroke-width="4" d="M206.467,200.626c-1.899-5.007-2.59-8.116-2.59-11.743
			c0-5.525,5.007-10.014,12.433-10.014c6.043,0,9.842,4.144,11.742,9.842l14.332,47.486h0.346l14.504-46.45
			c2.072-6.734,5.181-10.878,12.606-10.878c7.424,0,10.532,4.144,12.605,10.878l14.505,46.45h0.345l14.332-47.486
			c1.899-5.698,5.698-9.842,11.742-9.842c7.425,0,12.433,4.489,12.433,12.087c0,2.763-1.036,5.353-2.418,9.325l-21.239,59.917
			c-2.59,7.426-6.907,12.605-15.023,12.605c-7.597,0-12.087-4.144-14.332-11.569l-12.778-40.061h-0.345l-12.778,40.061
			c-2.245,7.425-6.734,11.569-14.332,11.569c-8.116,0-12.433-5.18-15.023-12.605L206.467,200.626z"/>
		<path fill="#50B748" stroke="#FFFFFF" stroke-width="4" d="M349.438,200.626c-1.899-5.007-2.59-8.116-2.59-11.743
			c0-5.525,5.008-10.014,12.433-10.014c6.043,0,9.843,4.144,11.742,9.842l14.332,47.486h0.345l14.505-46.45
			c2.071-6.734,5.181-10.878,12.604-10.878c7.426,0,10.532,4.144,12.605,10.878l14.505,46.45h0.346l14.332-47.486
			c1.898-5.698,5.698-9.842,11.742-9.842c7.425,0,12.432,4.489,12.432,12.087c0,2.763-1.035,5.353-2.417,9.325l-21.24,59.917
			c-2.59,7.426-6.906,12.605-15.021,12.605c-7.598,0-12.088-4.144-14.332-11.569l-12.778-40.061h-0.346l-12.777,40.061
			c-2.246,7.425-6.734,11.569-14.332,11.569c-8.116,0-12.433-5.18-15.022-12.605L349.438,200.626z"/>
		<path fill="#50B748" stroke="#FFFFFF" stroke-width="4" d="M492.407,200.626c-1.899-5.007-2.59-8.116-2.59-11.743
			c0-5.525,5.007-10.014,12.433-10.014c6.044,0,9.843,4.144,11.742,9.842l14.332,47.486h0.345l14.504-46.45
			c2.073-6.734,5.182-10.878,12.606-10.878c7.424,0,10.532,4.144,12.605,10.878l14.505,46.45h0.344l14.332-47.486
			c1.9-5.698,5.698-9.842,11.742-9.842c7.426,0,12.433,4.489,12.433,12.087c0,2.763-1.036,5.353-2.417,9.325l-21.239,59.917
			c-2.59,7.426-6.906,12.605-15.023,12.605c-7.597,0-12.086-4.144-14.331-11.569l-12.778-40.061h-0.345l-12.779,40.061
			c-2.243,7.425-6.733,11.569-14.33,11.569c-8.117,0-12.434-5.18-15.022-12.605L492.407,200.626z"/>
	</g>
</g>
<circle fill-rule="evenodd" clip-rule="evenodd" fill="#50B848" cx="504.606" cy="357.365" r="4.267"/>
<circle fill-rule="evenodd" clip-rule="evenodd" fill="#50B848" cx="504.606" cy="344.378" r="4.267"/>
<circle fill-rule="evenodd" clip-rule="evenodd" fill="#50B848" cx="504.606" cy="331.39" r="4.267"/>
<circle fill-rule="evenodd" clip-rule="evenodd" fill="#50B848" cx="504.606" cy="318.401" r="4.267"/>
<circle fill-rule="evenodd" clip-rule="evenodd" fill="#50B848" cx="504.606" cy="370.354" r="4.267"/>
<circle fill-rule="evenodd" clip-rule="evenodd" fill="#50B848" cx="504.606" cy="383.34" r="4.267"/>
<circle fill-rule="evenodd" clip-rule="evenodd" fill="#50B848" cx="504.606" cy="396.328" r="4.267"/>
<circle fill-rule="evenodd" clip-rule="evenodd" fill="#50B848" cx="504.606" cy="409.316" r="4.267"/>
<circle fill-rule="evenodd" clip-rule="evenodd" fill="#50B848" cx="504.606" cy="422.303" r="4.267"/>
<circle fill-rule="evenodd" clip-rule="evenodd" fill="#50B848" cx="504.606" cy="435.291" r="4.267"/>
<circle fill-rule="evenodd" clip-rule="evenodd" fill="#50B848" cx="504.606" cy="448.278" r="4.267"/>
<circle fill-rule="evenodd" clip-rule="evenodd" fill="#50B848" cx="504.606" cy="461.267" r="4.267"/>
<circle fill-rule="evenodd" clip-rule="evenodd" fill="#50B848" cx="504.606" cy="474.254" r="4.267"/>
<circle fill-rule="evenodd" clip-rule="evenodd" fill="#50B848" cx="504.606" cy="487.241" r="4.267"/>
<circle fill-rule="evenodd" clip-rule="evenodd" fill="#50B848" cx="504.606" cy="500.229" r="4.267"/>
<circle fill-rule="evenodd" clip-rule="evenodd" fill="#50B848" cx="504.606" cy="513.217" r="4.267"/>
<circle fill-rule="evenodd" clip-rule="evenodd" fill="#50B848" cx="504.606" cy="526.207" r="4.267"/>
</svg>
