<?xml version="1.0" encoding="utf-8"?>
<!-- Generator: Adobe Illustrator 16.0.0, SVG Export Plug-In . SVG Version: 6.00 Build 0)  -->
<!DOCTYPE svg PUBLIC "-//W3C//DTD SVG 1.1//EN" "http://www.w3.org/Graphics/SVG/1.1/DTD/svg11.dtd">
<svg version="1.1" id="Layer_1" xmlns="http://www.w3.org/2000/svg" xmlns:xlink="http://www.w3.org/1999/xlink" x="0px" y="0px"
	 width="698px" height="746px" viewBox="0 0 698 746" enable-background="new 0 0 698 746" xml:space="preserve">
<path fill-rule="evenodd" clip-rule="evenodd" fill="#50B848" d="M615.282,268.081c-187.607,0-366.322,0-553.94,0
	c-30.812-1.115-48.433-21.346-52.425-47.727c0-2.185,0-4.365,0-6.557c3.203-24.637,20.977-46.872,56.043-47.249
	c4.584-29.637,30.85-58.845,71.711-58.493c21.217,0.16,35.134,8.624,47.001,16.366c7.614-6.566,16.564-12.094,33.747-11.228
	c15.924-23.816,36.319-44.166,84.359-43.045c9.029-21.662,23.013-37.162,44.591-49.608c16.739-9.64,38.326-16.986,65.689-15.43
	c27.904,1.57,47.995,12.919,63.871,25.258c16.659,12.941,27.225,28.723,34.35,48.664c16.992,0.838,27.598,6.661,37.969,12.643
	c11.759-5.554,30.933-7.786,46.403-5.606c23.218,3.245,41.483,15.179,53.627,28.995c13,14.769,19.835,34.053,19.275,56.167
	c14.834,5.278,25.213,16.851,25.314,31.333c0.109,14.446-10.727,27.541-26.52,31.354c-2.117,0.523-5.196,0.617-6.625,1.877
	c-4.728,12.581-12.73,21.742-24.7,27.608C631.842,264.95,623.759,268.081,615.282,268.081z"/>
<g>
	<g>
		<path fill="#008345" d="M189.319,177.516c-1.684-4.44-2.296-7.197-2.296-10.412c0-4.899,4.44-8.88,11.024-8.88
			c5.359,0,8.727,3.674,10.411,8.727l12.708,42.105h0.306l12.861-41.187c1.837-5.971,4.593-9.646,11.177-9.646
			c6.583,0,9.34,3.674,11.177,9.646l12.861,41.187h0.306l12.708-42.105c1.685-5.053,5.053-8.727,10.412-8.727
			c6.584,0,11.024,3.98,11.024,10.718c0,2.45-0.918,4.746-2.144,8.268l-18.833,53.128c-2.296,6.584-6.125,11.178-13.32,11.178
			c-6.737,0-10.718-3.675-12.708-10.258l-11.33-35.522h-0.306l-11.331,35.522c-1.99,6.583-5.971,10.258-12.708,10.258
			c-7.197,0-11.024-4.593-13.321-11.178L189.319,177.516z"/>
		<path fill="#008345" d="M316.091,177.516c-1.684-4.44-2.296-7.197-2.296-10.412c0-4.899,4.44-8.88,11.024-8.88
			c5.359,0,8.728,3.674,10.412,8.727l12.708,42.105h0.306l12.861-41.187c1.838-5.971,4.594-9.646,11.177-9.646
			c6.584,0,9.341,3.674,11.178,9.646l12.86,41.187h0.307l12.708-42.105c1.685-5.053,5.053-8.727,10.412-8.727
			c6.583,0,11.023,3.98,11.023,10.718c0,2.45-0.919,4.746-2.144,8.268l-18.832,53.128c-2.297,6.584-6.125,11.178-13.32,11.178
			c-6.737,0-10.718-3.675-12.709-10.258l-11.33-35.522h-0.306l-11.33,35.522c-1.991,6.583-5.972,10.258-12.708,10.258
			c-7.196,0-11.024-4.593-13.321-11.178L316.091,177.516z"/>
		<path fill="#008345" d="M442.862,177.516c-1.684-4.44-2.296-7.197-2.296-10.412c0-4.899,4.44-8.88,11.023-8.88
			c5.359,0,8.728,3.674,10.412,8.727l12.708,42.105h0.306l12.861-41.187c1.838-5.971,4.594-9.646,11.177-9.646
			c6.585,0,9.341,3.674,11.178,9.646l12.861,41.187h0.307l12.708-42.105c1.684-5.053,5.052-8.727,10.411-8.727
			c6.584,0,11.023,3.98,11.023,10.718c0,2.45-0.918,4.746-2.144,8.268l-18.832,53.128c-2.297,6.584-6.125,11.178-13.32,11.178
			c-6.737,0-10.718-3.675-12.709-10.258l-11.33-35.522h-0.306l-11.33,35.522c-1.991,6.583-5.972,10.258-12.708,10.258
			c-7.196,0-11.024-4.593-13.321-11.178L442.862,177.516z"/>
	</g>
</g>
<g>
	<g>
		<path fill-rule="evenodd" clip-rule="evenodd" fill="#50B848" d="M170.183,528.845c46.616,5.096,199.545,18.747,363.958,0.313
			c4.502-0.671,19.968-4.37,0.854-22.331c-28.132-25.661-98.988-43.875-182.009-43.875c-82.365,0-152.752,17.93-181.329,43.268
			C153.58,522.832,164.479,527.566,170.183,528.845z"/>
		<path fill-rule="evenodd" clip-rule="evenodd" fill="#50B848" d="M533.378,537.022v-0.011
			c-62.636,6.984-123.269,9.38-176.896,9.38c-87.013,0-155.552-6.278-184.309-9.41c-2.407-0.193-14.293-0.499-13.951,12.472
			c0.014,0.45,0.012,0.874-0.004,1.275c0.843,39.039,4.702,127.218,22.319,170.51c0,0,2.502,15.38,172.449,15.38
			c169.152,0,172.449-15.38,172.449-15.38c17.813-43.783,21.56-133.451,22.347-171.796
			C548.149,535.028,533.378,537.022,533.378,537.022z"/>
	</g>
	<g>
		<g>
			<path fill="#F4F4F4" d="M260.988,655.663c-1.146,0-3.316-1.721-5.283-1.721c-1.106,0-2.007,0.491-2.007,1.636
				c0,2.785,10.238,2.336,10.238,9.053c0,3.93-3.314,6.921-8.394,6.921c-3.316,0-8.232-1.886-8.232-4.543
				c0-0.864,0.901-2.624,2.542-2.624c2.29,0,3.315,2.01,6.1,2.01c1.801,0,2.335-0.576,2.335-1.683
				c0-2.704-10.239-2.293-10.239-9.049c0-4.095,3.318-6.879,7.987-6.879c2.948,0,7.37,1.349,7.37,4.26
				C263.404,654.393,262.421,655.663,260.988,655.663z"/>
			<path fill="#F4F4F4" d="M286.299,660.207c0,6.141-4.219,11.345-10.566,11.345c-6.348,0-10.567-5.204-10.567-11.345
				c0-6.019,4.34-11.423,10.567-11.423C281.957,648.784,286.299,654.188,286.299,660.207z M271.064,660.207
				c0,2.826,1.515,5.938,4.668,5.938c3.152,0,4.669-3.111,4.669-5.938c0-2.781-1.391-6.019-4.669-6.019
				C272.455,654.188,271.064,657.426,271.064,660.207z"/>
			<path fill="#F4F4F4" d="M303.459,655.337c-1.477,0-2.827-1.148-4.67-1.148c-3.358,0-4.957,2.945-4.957,6.019
				c0,2.949,1.803,5.938,4.957,5.938c1.515,0,3.687-1.226,4.38-1.226c1.433,0,2.542,1.145,2.542,2.577
				c0,3.073-5.079,4.056-7.209,4.056c-6.349,0-10.568-5.204-10.568-11.345c0-6.019,4.342-11.423,10.568-11.423
				c2.333,0,7.209,0.899,7.209,3.726C305.711,653.738,304.849,655.337,303.459,655.337z"/>
			<path fill="#F4F4F4" d="M313.942,643.418c0,1.841-1.475,3.399-3.318,3.399c-1.759,0-3.316-1.598-3.316-3.399
				c0-1.682,1.557-3.236,3.316-3.236C312.383,640.182,313.942,641.698,313.942,643.418z M307.678,652.303
				c0-1.967,1.187-3.276,2.946-3.276c1.76,0,2.95,1.31,2.95,3.276v15.728c0,1.963-1.19,3.276-2.95,3.276
				c-1.759,0-2.946-1.313-2.946-3.276V652.303z"/>
			<path fill="#F4F4F4" d="M336.996,667.457c0,1.515,0,3.85-2.823,3.85c-1.761,0-2.379-0.902-2.828-2.501
				c-1.514,1.844-3.399,2.746-5.609,2.746c-5.571,0-9.746-4.712-9.746-11.345c0-6.426,4.338-11.423,9.746-11.423
				c2.168,0,4.297,0.856,5.609,2.7c0.165-1.433,1.394-2.458,2.828-2.458c2.823,0,2.823,2.335,2.823,3.852V667.457z M326.552,666.145
				c3.074,0,4.547-3.111,4.547-5.938c0-2.781-1.431-6.019-4.547-6.019c-3.274,0-4.667,3.237-4.667,6.019
				C321.885,663.033,323.398,666.145,326.552,666.145z"/>
			<path fill="#F4F4F4" d="M340.271,642.804c0-1.966,1.189-3.276,2.95-3.276c1.761,0,2.95,1.311,2.95,3.276v25.227
				c0,1.963-1.188,3.276-2.95,3.276c-1.761,0-2.95-1.313-2.95-3.276V642.804z"/>
			<path fill="#F4F4F4" d="M349.363,642.804c0-1.966,1.189-3.276,2.95-3.276c1.761,0,2.947,1.311,2.947,3.276v25.227
				c0,1.963-1.187,3.276-2.947,3.276c-1.761,0-2.95-1.313-2.95-3.276V642.804z"/>
		</g>
		<g>
			<path fill="#F4F4F4" d="M379.703,669.34c0,7.044-4.625,10.65-11.343,10.65c-2.458,0-9.296-1.19-9.296-4.425
				c0-1.105,1.229-2.58,2.375-2.58c1.842,0,4.014,1.843,7.37,1.843c2.909,0,4.999-1.679,4.999-4.67v-1.391h-0.083
				c-1.27,1.84-3.236,2.784-5.939,2.784c-6.184,0-9.09-5.449-9.09-11.303c0-5.899,3.769-11.465,9.705-11.465
				c2.008,0,4.301,0.899,5.407,2.7c0.368-1.598,1.308-2.458,2.945-2.458c1.763,0,2.949,1.31,2.949,3.276V669.34z M369.18,654.188
				c-3.072,0-4.587,3.153-4.587,5.938c0,3.153,1.515,6.019,4.587,6.019c3.11,0,4.629-2.988,4.629-5.814
				C373.809,657.465,372.414,654.188,369.18,654.188z"/>
			<path fill="#F4F4F4" d="M382.979,651.977c0-1.967,1.559-2.95,3.029-2.95c1.601,0,2.87,0.534,2.87,2.458h0.08
				c1.106-1.64,2.292-2.458,4.138-2.458c1.433,0,2.865,1.025,2.865,3.157c0,1.963-1.76,2.005-3.522,2.864
				c-1.759,0.776-3.561,1.637-3.561,3.93v9.053c0,1.963-1.188,3.276-2.949,3.276c-1.761,0-2.95-1.313-2.95-3.276V651.977z"/>
			<path fill="#F4F4F4" d="M400.713,662.131c0.449,2.95,2.786,4.264,5.571,4.264c3.027,0,5.117-2.378,6.673-2.378
				c1.271,0,2.416,1.268,2.416,2.539c0,2.5-5.2,4.996-9.621,4.996c-6.636,0-11.061-4.831-11.061-11.345
				c0-6.019,4.343-11.423,10.566-11.423c6.39,0,10.608,5.812,10.608,10.728c0,1.763-0.778,2.619-2.581,2.619H400.713z
				 M409.971,658.201c-0.328-2.623-1.928-4.505-4.713-4.505c-2.619,0-4.381,2.009-4.667,4.505H409.971z"/>
			<path fill="#F4F4F4" d="M422.702,662.131c0.454,2.95,2.787,4.264,5.573,4.264c3.03,0,5.116-2.378,6.674-2.378
				c1.269,0,2.415,1.268,2.415,2.539c0,2.5-5.202,4.996-9.622,4.996c-6.635,0-11.058-4.831-11.058-11.345
				c0-6.019,4.342-11.423,10.565-11.423c6.389,0,10.606,5.812,10.606,10.728c0,1.763-0.778,2.619-2.578,2.619H422.702z
				 M431.961,658.201c-0.328-2.623-1.924-4.505-4.711-4.505c-2.621,0-4.383,2.009-4.668,4.505H431.961z"/>
			<path fill="#F4F4F4" d="M439.945,652.303c0-1.967,1.188-3.276,2.947-3.276c1.518,0,2.499,0.818,2.705,2.174
				c1.147-1.598,2.907-2.416,5.691-2.416c4.63,0,8.066,2.907,8.066,7.942v11.304c0,1.963-1.189,3.276-2.946,3.276
				c-1.762,0-2.948-1.313-2.948-3.276v-10.281c0-2.781-1.721-4.053-3.852-4.053c-2.455,0-3.767,1.759-3.767,4.053v10.281
				c0,1.963-1.187,3.276-2.95,3.276c-1.76,0-2.947-1.313-2.947-3.276V652.303z"/>
		</g>
	</g>
	<g>
		<path fill-rule="evenodd" clip-rule="evenodd" fill="#F4F4F4" d="M281.33,493.673c1.626,6.851-10.16,15.51-26.332,19.366
			c-16.179,3.837-30.604,1.418-32.232-5.43c-1.626-6.829,10.166-15.499,26.335-19.354
			C265.263,484.413,279.701,486.826,281.33,493.673z"/>
	</g>
	<g>
		<g>
			<path fill="#F4F4F4" d="M453.375,605.035c0,3.596-2.916,6.5-6.501,6.5h-52.728c-3.584,0-6.498-2.904-6.498-6.5l0.012-25.952
				c0-3.589,2.902-6.5,6.491-6.5h52.715c3.593,0,6.509,2.911,6.509,6.5V605.035z"/>
		</g>
		<g>
			<g>
				<path fill="#FFFFFF" d="M399.497,581.425c0,0.544-0.435,0.99-0.971,0.99h-4.019c-0.545,0-0.976-0.446-0.976-0.99v-4.014
					c0-0.537,0.431-0.97,0.976-0.97h4.019c0.536,0,0.971,0.433,0.971,0.97V581.425z"/>
			</g>
			<g>
				<path fill="#50B848" d="M399.175,581.207c0,0.484-0.388,0.874-0.876,0.874h-3.573c-0.479,0-0.872-0.39-0.872-0.874v-3.567
					c0-0.481,0.393-0.885,0.872-0.885h3.573c0.488,0,0.876,0.403,0.876,0.885V581.207z"/>
			</g>
		</g>
		<g>
			<g>
				<path fill="#FFFFFF" d="M399.497,606.71c0,0.534-0.435,0.97-0.971,0.97h-4.019c-0.545,0-0.976-0.436-0.976-0.97v-4.037
					c0-0.521,0.431-0.962,0.976-0.962h4.019c0.536,0,0.971,0.441,0.971,0.962V606.71z"/>
			</g>
			<g>
				<path fill="#50B848" d="M399.175,606.486c0,0.477-0.388,0.867-0.876,0.867h-3.573c-0.479,0-0.872-0.391-0.872-0.867v-3.593
					c0-0.471,0.393-0.847,0.872-0.847h3.573c0.488,0,0.876,0.376,0.876,0.847V606.486z"/>
			</g>
		</g>
		<g>
			<g>
				<path fill="#FFFFFF" d="M399.497,598.279c0,0.538-0.435,0.98-0.971,0.98h-4.019c-0.545,0-0.976-0.442-0.976-0.98v-4.017
					c0-0.545,0.431-0.974,0.976-0.974h4.019c0.536,0,0.971,0.429,0.971,0.974V598.279z"/>
			</g>
			<g>
				<path fill="#50B848" d="M399.175,598.062c0,0.485-0.388,0.878-0.876,0.878h-3.573c-0.479,0-0.872-0.393-0.872-0.878v-3.577
					c0-0.488,0.393-0.871,0.872-0.871h3.573c0.488,0,0.876,0.383,0.876,0.871V598.062z"/>
			</g>
		</g>
		<g>
			<g>
				<path fill="#FFFFFF" d="M399.497,589.862c0,0.545-0.435,0.977-0.971,0.977h-4.019c-0.545,0-0.976-0.432-0.976-0.977v-4.03
					c0-0.531,0.431-0.966,0.976-0.966h4.019c0.536,0,0.971,0.435,0.971,0.966V589.862z"/>
			</g>
			<g>
				<path fill="#50B848" d="M399.175,589.645c0,0.485-0.388,0.857-0.876,0.857h-3.573c-0.479,0-0.872-0.372-0.872-0.857v-3.596
					c0-0.474,0.393-0.866,0.872-0.866h3.573c0.488,0,0.876,0.393,0.876,0.866V589.645z"/>
			</g>
		</g>
		<g>
			<polygon fill="#50B848" points="402.99,607.68 447.941,607.68 447.729,576.441 402.99,576.441 			"/>
		</g>
	</g>
</g>
<g>
	<g>
		<path fill="#50B748" stroke="#008445" stroke-width="4" d="M184.357,173.793c-1.684-4.44-2.296-7.197-2.296-10.412
			c0-4.899,4.44-8.88,11.024-8.88c5.359,0,8.727,3.674,10.412,8.727l12.708,42.105h0.306l12.861-41.187
			c1.837-5.972,4.593-9.646,11.177-9.646c6.583,0,9.339,3.674,11.177,9.646l12.861,41.187h0.307l12.708-42.105
			c1.684-5.053,5.052-8.727,10.411-8.727c6.584,0,11.024,3.981,11.024,10.718c0,2.45-0.919,4.747-2.144,8.268l-18.833,53.129
			c-2.296,6.584-6.124,11.177-13.321,11.177c-6.737,0-10.717-3.674-12.708-10.258l-11.33-35.521h-0.306l-11.33,35.521
			c-1.991,6.584-5.972,10.258-12.708,10.258c-7.197,0-11.024-4.593-13.321-11.177L184.357,173.793z"/>
		<path fill="#50B748" stroke="#008445" stroke-width="4" d="M311.128,173.793c-1.684-4.44-2.296-7.197-2.296-10.412
			c0-4.899,4.44-8.88,11.024-8.88c5.359,0,8.728,3.674,10.412,8.727l12.708,42.105h0.307l12.86-41.187
			c1.838-5.972,4.594-9.646,11.178-9.646s9.34,3.674,11.177,9.646l12.861,41.187h0.307l12.708-42.105
			c1.684-5.053,5.053-8.727,10.412-8.727c6.583,0,11.023,3.981,11.023,10.718c0,2.45-0.919,4.747-2.144,8.268l-18.833,53.129
			c-2.297,6.584-6.124,11.177-13.32,11.177c-6.736,0-10.718-3.674-12.708-10.258l-11.331-35.521h-0.306l-11.33,35.521
			c-1.991,6.584-5.971,10.258-12.708,10.258c-7.196,0-11.024-4.593-13.321-11.177L311.128,173.793z"/>
		<path fill="#50B748" stroke="#008445" stroke-width="4" d="M437.9,173.793c-1.685-4.44-2.297-7.197-2.297-10.412
			c0-4.899,4.44-8.88,11.024-8.88c5.358,0,8.728,3.674,10.411,8.727l12.708,42.105h0.307l12.861-41.187
			c1.837-5.972,4.594-9.646,11.177-9.646c6.584,0,9.34,3.674,11.178,9.646l12.861,41.187h0.306l12.708-42.105
			c1.685-5.053,5.053-8.727,10.412-8.727c6.583,0,11.023,3.981,11.023,10.718c0,2.45-0.918,4.747-2.144,8.268l-18.833,53.129
			c-2.296,6.584-6.124,11.177-13.32,11.177c-6.736,0-10.718-3.674-12.708-10.258l-11.33-35.521h-0.306l-11.331,35.521
			c-1.99,6.584-5.972,10.258-12.708,10.258c-7.196,0-11.024-4.593-13.32-11.177L437.9,173.793z"/>
	</g>
</g>
<circle fill-rule="evenodd" clip-rule="evenodd" fill="#50B848" cx="448.717" cy="312.774" r="3.783"/>
<circle fill-rule="evenodd" clip-rule="evenodd" fill="#50B848" cx="448.717" cy="301.258" r="3.783"/>
<circle fill-rule="evenodd" clip-rule="evenodd" fill="#50B848" cx="448.717" cy="289.742" r="3.783"/>
<circle fill-rule="evenodd" clip-rule="evenodd" fill="#50B848" cx="448.717" cy="278.225" r="3.783"/>
<circle fill-rule="evenodd" clip-rule="evenodd" fill="#50B848" cx="448.717" cy="324.291" r="3.783"/>
<circle fill-rule="evenodd" clip-rule="evenodd" fill="#50B848" cx="448.717" cy="335.807" r="3.783"/>
<circle fill-rule="evenodd" clip-rule="evenodd" fill="#50B848" cx="448.717" cy="347.323" r="3.783"/>
<circle fill-rule="evenodd" clip-rule="evenodd" fill="#50B848" cx="448.717" cy="358.839" r="3.783"/>
<circle fill-rule="evenodd" clip-rule="evenodd" fill="#50B848" cx="448.717" cy="370.355" r="3.783"/>
<circle fill-rule="evenodd" clip-rule="evenodd" fill="#50B848" cx="448.717" cy="381.871" r="3.783"/>
<circle fill-rule="evenodd" clip-rule="evenodd" fill="#50B848" cx="448.717" cy="393.388" r="3.783"/>
<circle fill-rule="evenodd" clip-rule="evenodd" fill="#50B848" cx="448.717" cy="404.903" r="3.783"/>
<circle fill-rule="evenodd" clip-rule="evenodd" fill="#50B848" cx="448.717" cy="416.42" r="3.783"/>
<circle fill-rule="evenodd" clip-rule="evenodd" fill="#50B848" cx="448.717" cy="427.936" r="3.783"/>
<circle fill-rule="evenodd" clip-rule="evenodd" fill="#50B848" cx="448.717" cy="439.452" r="3.783"/>
<circle fill-rule="evenodd" clip-rule="evenodd" fill="#50B848" cx="448.717" cy="450.969" r="3.783"/>
<circle fill-rule="evenodd" clip-rule="evenodd" fill="#50B848" cx="448.717" cy="462.486" r="3.783"/>
<g>
	<g>
		<path fill="#50B848" d="M460.778,408.346c0-3.603,2.779-6.381,6.407-6.381c1.492,0,2.805,0.438,3.963,1.338v2.11
			c-1.106-1.133-2.316-1.776-3.859-1.776c-2.6,0-4.555,2.213-4.555,4.684c0,2.521,1.955,4.708,4.528,4.708
			c1.544,0,2.984-0.694,4.014-1.903v2.109c-1.234,0.979-2.624,1.467-4.143,1.467C463.531,414.701,460.778,411.922,460.778,408.346z"
			/>
		<path fill="#50B848" d="M473.337,408.371c0-3.628,2.934-6.406,6.561-6.406c3.654,0,6.613,2.676,6.613,6.381
			s-2.959,6.355-6.613,6.355C476.296,414.701,473.337,411.948,473.337,408.371z M475.292,408.371c0,2.471,1.956,4.606,4.529,4.606
			c2.701,0,4.733-2.032,4.733-4.606c0-2.649-2.006-4.683-4.733-4.683C477.196,403.688,475.292,405.824,475.292,408.371z"/>
		<path fill="#50B848" d="M497.216,407.395c0-1.956-0.153-3.758-2.676-3.758c-2.778,0-3.241,2.471-3.241,4.709v6.072h-1.904v-12.145
			h1.904v1.802c0.797-1.364,2.059-2.11,3.68-2.11c3.189,0,4.168,1.981,4.168,5.095v7.358h-1.931V407.395z"/>
		<path fill="#50B848" d="M510.958,407.395c0-1.956-0.154-3.758-2.676-3.758c-2.778,0-3.241,2.471-3.241,4.709v6.072h-1.905v-12.145
			h1.905v1.802c0.797-1.364,2.058-2.11,3.679-2.11c3.19,0,4.168,1.981,4.168,5.095v7.358h-1.93V407.395z"/>
		<path fill="#50B848" d="M522.023,413.132c1.673,0,2.984-0.927,3.782-2.394l1.75,0.464c-1.029,2.289-3.164,3.499-5.635,3.499
			c-3.731,0-6.175-2.779-6.175-6.381c0-3.499,2.443-6.355,6.098-6.355c3.705,0,5.97,2.702,6.047,6.201
			c0.025,0.025,0.025,0.103,0.025,0.205c-0.025,0.052-0.025,0.13-0.025,0.232h-10.241
			C517.572,411.356,519.451,413.132,522.023,413.132z M517.676,407.162h8.362c-0.283-1.98-1.981-3.679-4.117-3.679
			C519.76,403.483,517.881,405.104,517.676,407.162z"/>
		<path fill="#50B848" d="M529.642,408.346c0-3.603,2.779-6.381,6.407-6.381c1.492,0,2.805,0.438,3.963,1.338v2.11
			c-1.106-1.133-2.316-1.776-3.859-1.776c-2.6,0-4.555,2.213-4.555,4.684c0,2.521,1.955,4.708,4.528,4.708
			c1.544,0,2.984-0.694,4.014-1.903v2.109c-1.234,0.979-2.624,1.467-4.143,1.467C532.395,414.701,529.642,411.922,529.642,408.346z"
			/>
		<path fill="#50B848" d="M545.417,414.418h-1.904v-10.472h-1.364v-1.698h1.364v-4.168h1.904v4.168h2.213v1.698h-2.213V414.418z"/>
		<path fill="#50B848" d="M554.886,413.132c1.673,0,2.985-0.927,3.783-2.394l1.749,0.464c-1.029,2.289-3.165,3.499-5.635,3.499
			c-3.73,0-6.176-2.779-6.176-6.381c0-3.499,2.445-6.355,6.099-6.355c3.705,0,5.969,2.702,6.046,6.201
			c0.026,0.025,0.026,0.103,0.026,0.205c-0.026,0.052-0.026,0.13-0.026,0.232h-10.24
			C550.435,411.356,552.313,413.132,554.886,413.132z M550.537,407.162h8.363c-0.283-1.98-1.981-3.679-4.117-3.679
			C552.622,403.483,550.744,405.104,550.537,407.162z"/>
		<path fill="#50B848" d="M573.054,412.411h-0.026c-0.899,1.519-2.701,2.29-4.425,2.29c-3.68,0-6.047-2.856-6.047-6.433
			c0-3.551,2.367-6.304,5.995-6.304c1.749,0,3.474,0.746,4.477,2.187l0.026-10.986h1.903v21.253h-1.903V412.411z M564.485,408.269
			c0,2.496,1.647,4.709,4.323,4.709c2.805,0,4.322-2.213,4.322-4.812c0-2.496-1.698-4.478-4.374-4.478
			C566.209,403.688,564.485,405.901,564.485,408.269z"/>
	</g>
</g>
</svg>
