<?xml version="1.0" encoding="utf-8"?>
<!-- Generator: Adobe Illustrator 16.0.0, SVG Export Plug-In . SVG Version: 6.00 Build 0)  -->
<!DOCTYPE svg PUBLIC "-//W3C//DTD SVG 1.1//EN" "http://www.w3.org/Graphics/SVG/1.1/DTD/svg11.dtd">
<svg version="1.1" id="Layer_1" xmlns="http://www.w3.org/2000/svg" xmlns:xlink="http://www.w3.org/1999/xlink" x="0px" y="0px"
	 width="304px" height="584px" viewBox="0 0 304 584" enable-background="new 0 0 304 584" xml:space="preserve">
<path fill="#4D4D4F" d="M259.174,4.716H45.738c-22.273,0-40.337,18.056-40.337,40.352v493.187c0,22.296,18.063,40.346,40.337,40.346
	h213.436c22.271,0,40.316-18.05,40.316-40.346V45.067C299.49,22.771,281.445,4.716,259.174,4.716z M116.704,38.719
	c0-2.865,2.322-5.187,5.186-5.187h61.111c2.864,0,5.187,2.321,5.187,5.187v5.366c0,2.863-2.322,5.186-5.187,5.186H121.89
	c-2.864,0-5.186-2.322-5.186-5.186V38.719z M172.207,548.034c0,3.921-3.178,7.052-7.072,7.052h-25.388
	c-3.888,0-7.032-3.131-7.032-7.052v-25.394c0-3.916,3.145-7.052,7.032-7.052h25.388c3.895,0,7.072,3.136,7.072,7.052V548.034z
	 M271.662,494.181H33.212V79.9h238.45V494.181z"/>
<rect x="33.212" y="79.9" fill="#FFFFFF" width="238.45" height="414.28"/>
<g>
	<path fill="#911762" d="M79.785,284.515c-0.901,0-2.606-1.351-4.149-1.351c-0.869,0-1.577,0.385-1.577,1.286
		c0,2.187,8.042,1.833,8.042,7.108c0,3.088-2.606,5.438-6.594,5.438c-2.606,0-6.466-1.48-6.466-3.57c0-0.676,0.708-2.06,1.994-2.06
		c1.801,0,2.605,1.577,4.794,1.577c1.414,0,1.833-0.451,1.833-1.319c0-2.124-8.042-1.802-8.042-7.109
		c0-3.216,2.605-5.405,6.272-5.405c2.316,0,5.79,1.062,5.79,3.346C81.683,283.517,80.91,284.515,79.785,284.515z"/>
	<path fill="#911762" d="M99.663,288.085c0,4.825-3.313,8.911-8.3,8.911s-8.299-4.086-8.299-8.911c0-4.728,3.411-8.976,8.299-8.976
		C96.253,279.109,99.663,283.357,99.663,288.085z M87.697,288.085c0,2.22,1.189,4.665,3.667,4.665c2.477,0,3.667-2.445,3.667-4.665
		c0-2.188-1.094-4.728-3.667-4.728C88.79,283.357,87.697,285.897,87.697,288.085z"/>
	<path fill="#911762" d="M113.14,284.258c-1.158,0-2.22-0.9-3.667-0.9c-2.638,0-3.893,2.314-3.893,4.728
		c0,2.316,1.416,4.665,3.893,4.665c1.19,0,2.896-0.965,3.442-0.965c1.126,0,1.995,0.9,1.995,2.025c0,2.413-3.989,3.186-5.662,3.186
		c-4.986,0-8.299-4.086-8.299-8.911c0-4.728,3.41-8.976,8.299-8.976c1.833,0,5.662,0.708,5.662,2.929
		C114.909,283.002,114.234,284.258,113.14,284.258z"/>
	<path fill="#911762" d="M121.373,274.896c0,1.448-1.158,2.67-2.605,2.67c-1.383,0-2.605-1.256-2.605-2.67
		c0-1.319,1.222-2.542,2.605-2.542C120.151,272.354,121.373,273.546,121.373,274.896z M116.452,281.876
		c0-1.544,0.933-2.572,2.316-2.572c1.384,0,2.317,1.028,2.317,2.572v12.353c0,1.545-0.933,2.574-2.317,2.574
		c-1.383,0-2.316-1.029-2.316-2.574V281.876z"/>
	<path fill="#911762" d="M139.482,293.779c0,1.189,0,3.023-2.219,3.023c-1.384,0-1.867-0.708-2.22-1.962
		c-1.191,1.447-2.67,2.155-4.407,2.155c-4.375,0-7.656-3.699-7.656-8.911c0-5.051,3.41-8.976,7.656-8.976
		c1.705,0,3.378,0.677,4.407,2.123c0.128-1.125,1.093-1.929,2.22-1.929c2.219,0,2.219,1.833,2.219,3.023V293.779z M131.28,292.75
		c2.412,0,3.57-2.445,3.57-4.665c0-2.188-1.126-4.728-3.57-4.728c-2.573,0-3.667,2.54-3.667,4.728
		C127.613,290.305,128.803,292.75,131.28,292.75z"/>
	<path fill="#911762" d="M141.621,273.112c0-1.544,0.933-2.573,2.316-2.573s2.316,1.029,2.316,2.573v21.116
		c0,1.545-0.933,2.574-2.316,2.574s-2.316-1.029-2.316-2.574V273.112z"/>
	<path fill="#911762" d="M147.79,273.033c0-1.545,0.933-2.574,2.315-2.574c1.383,0,2.316,1.029,2.316,2.574v21.195
		c0,1.544-0.933,2.574-2.316,2.574c-1.382,0-2.315-1.03-2.315-2.574V273.033z"/>
	<g>
		<path fill="#7DC242" d="M171.735,295.258c0,5.533-3.635,8.364-8.911,8.364c-1.929,0-7.301-0.933-7.301-3.474
			c0-0.869,0.965-2.027,1.865-2.027c1.447,0,3.152,1.447,5.791,1.447c2.283,0,3.924-1.318,3.924-3.666v-1.094h-0.064
			c-0.997,1.447-2.541,2.188-4.664,2.188c-4.857,0-7.142-4.278-7.142-8.879c0-4.633,2.96-9.008,7.624-9.008
			c1.576,0,3.377,0.708,4.246,2.123c0.289-1.254,1.029-1.929,2.316-1.929c1.383,0,2.315,1.028,2.315,2.572V295.258z
			 M163.469,283.357c-2.413,0-3.604,2.477-3.604,4.663c0,2.477,1.19,4.729,3.604,4.729c2.445,0,3.635-2.349,3.635-4.568
			C167.104,285.93,166.01,283.357,163.469,283.357z"/>
		<path fill="#7DC242" d="M174.307,281.619c0-1.544,1.223-2.315,2.381-2.315c1.255,0,2.252,0.417,2.252,1.929h0.064
			c0.868-1.286,1.801-1.929,3.249-1.929c1.125,0,2.251,0.804,2.251,2.476c0,1.545-1.383,1.578-2.766,2.252
			c-1.384,0.611-2.799,1.287-2.799,3.089v7.108c0,1.545-0.934,2.574-2.316,2.574s-2.316-1.029-2.316-2.574V281.619z"/>
		<path fill="#7DC242" d="M188.744,289.597c0.354,2.315,2.188,3.347,4.375,3.347c2.381,0,4.021-1.867,5.242-1.867
			c0.998,0,1.898,0.998,1.898,1.996c0,1.961-4.084,3.924-7.559,3.924c-5.212,0-8.686-3.797-8.686-8.911
			c0-4.728,3.409-8.976,8.299-8.976c5.019,0,8.331,4.568,8.331,8.429c0,1.384-0.61,2.059-2.026,2.059H188.744z M196.014,286.51
			c-0.257-2.06-1.512-3.539-3.699-3.539c-2.059,0-3.442,1.576-3.667,3.539H196.014z"/>
		<path fill="#7DC242" d="M206.525,289.597c0.354,2.315,2.188,3.347,4.375,3.347c2.38,0,4.021-1.867,5.243-1.867
			c0.997,0,1.897,0.998,1.897,1.996c0,1.961-4.084,3.924-7.559,3.924c-5.212,0-8.686-3.797-8.686-8.911
			c0-4.728,3.409-8.976,8.299-8.976c5.019,0,8.332,4.568,8.332,8.429c0,1.384-0.612,2.059-2.027,2.059H206.525z M213.795,286.51
			c-0.257-2.06-1.512-3.539-3.699-3.539c-2.059,0-3.442,1.576-3.667,3.539H213.795z"/>
		<path fill="#7DC242" d="M220.065,281.876c0-1.544,0.934-2.572,2.317-2.572c1.189,0,1.961,0.643,2.122,1.704
			c0.9-1.254,2.284-1.898,4.472-1.898c3.635,0,6.337,2.285,6.337,6.241v8.878c0,1.545-0.933,2.574-2.316,2.574
			s-2.315-1.029-2.315-2.574v-8.073c0-2.188-1.352-3.185-3.024-3.185c-1.929,0-2.959,1.383-2.959,3.185v8.073
			c0,1.545-0.933,2.574-2.315,2.574c-1.384,0-2.317-1.029-2.317-2.574V281.876z"/>
	</g>
</g>
</svg>
